#N canvas 59 53 600 719 10;
#X obj 48 65 comport 9600;
#X msg 36 17 devices;
#X msg 95 19 open 1;
#X msg 165 23 close;
#X obj 142 160 bng 15 250 50 0 empty empty empty 17 7 0 10 -262144
-1 -1;
#X obj 268 184 bng 15 250 50 0 empty empty empty 17 7 0 10 -262144
-1 -1;
#X text 52 163 IR mode;
#X text 307 175 ultrasonic mode;
#X msg 139 204 2;
#X msg 252 217 3;
#X floatatom 181 247 5 0 0 0 - - -;
#X obj 327 227 bng 15 250 50 0 empty empty empty 17 7 0 10 -262144
-1 -1;
#X obj 193 290 sel 2;
#X msg 230 53 5;
#X obj 175 326 bng 15 250 50 0 empty empty empty 17 7 0 10 -262144
-1 -1;
#X obj 228 327 bng 15 250 50 0 empty empty empty 17 7 0 10 -262144
-1 -1;
#X floatatom 240 439 5 0 0 0 - - -;
#X obj 164 372 f;
#X obj 250 358 f;
#X msg 294 60 254;
#X msg 337 63 253;
#X obj 156 115 sel 254;
#X obj 228 146 sel 253;
#X obj 306 116 print;
#X obj 328 146 t f f;
#X floatatom 141 440 5 0 0 0 - - -;
#X obj 245 483 sel 10;
#X obj 210 664 dac~;
#X obj 212 517 bng 15 250 50 0 empty empty empty 17 7 0 10 -262144
-1 -1;
#X obj 258 518 bng 15 250 50 0 empty empty empty 17 7 0 10 -262144
-1 -1;
#X msg 132 555 1;
#X obj 134 530 bng 15 250 50 0 empty empty empty 17 7 0 10 -262144
-1 -1;
#X obj 167 525 bng 15 250 50 0 empty empty empty 17 7 0 10 -262144
-1 -1;
#X obj 197 635 *~;
#X obj 293 482 sel 15;
#X obj 339 482 sel 20;
#X obj 388 481 sel 25;
#X obj 436 482 sel 30;
#X obj 484 484 sel 35;
#X obj 305 517 bng 15 250 50 0 empty empty empty 17 7 0 10 -262144
-1 -1;
#X obj 354 517 bng 15 250 50 0 empty empty empty 17 7 0 10 -262144
-1 -1;
#X obj 402 517 bng 15 250 50 0 empty empty empty 17 7 0 10 -262144
-1 -1;
#X obj 449 517 bng 15 250 50 0 empty empty empty 17 7 0 10 -262144
-1 -1;
#X msg 224 563 130.81;
#X msg 266 563 155.56;
#X msg 309 563 174.61;
#X msg 356 563 185;
#X msg 403 564 196;
#X msg 450 564 233.08;
#X obj 200 485 sel 40;
#X msg 503 567 261.63;
#X obj 495 520 bng 15 250 50 0 empty empty empty 17 7 0 10 -262144
-1 -1;
#X obj 213 611 phasor~;
#X msg 159 551 0;
#X obj 134 477 moses 15;
#X obj 50 464 moses 40;
#X obj 50 505 moses 5;
#X obj 80 573 / 35;
#X obj 83 551 - 5;
#X floatatom 122 641 5 0 0 0 - - -;
#X obj 51 551 bng 15 250 50 0 empty empty empty 17 7 0 10 -262144 -1
-1;
#X msg 40 586 0;
#X obj 85 597 * -1;
#X obj 98 618 + 1;
#X obj 315 613 * 2;
#X connect 0 0 21 0;
#X connect 0 0 23 0;
#X connect 1 0 0 0;
#X connect 2 0 0 0;
#X connect 3 0 0 0;
#X connect 4 0 8 0;
#X connect 5 0 9 0;
#X connect 8 0 10 0;
#X connect 9 0 10 0;
#X connect 10 0 12 0;
#X connect 11 0 10 0;
#X connect 12 0 14 0;
#X connect 12 1 15 0;
#X connect 13 0 21 0;
#X connect 14 0 17 0;
#X connect 15 0 18 0;
#X connect 16 0 49 0;
#X connect 17 0 25 0;
#X connect 18 0 16 0;
#X connect 19 0 21 0;
#X connect 20 0 21 0;
#X connect 21 0 4 0;
#X connect 21 1 22 0;
#X connect 22 0 5 0;
#X connect 22 1 24 0;
#X connect 24 0 11 0;
#X connect 24 1 17 1;
#X connect 24 1 18 1;
#X connect 25 0 55 0;
#X connect 26 0 29 0;
#X connect 26 1 34 0;
#X connect 28 0 43 0;
#X connect 29 0 44 0;
#X connect 30 0 33 1;
#X connect 31 0 30 0;
#X connect 32 0 53 0;
#X connect 33 0 27 0;
#X connect 34 0 39 0;
#X connect 34 1 35 0;
#X connect 35 0 40 0;
#X connect 35 1 36 0;
#X connect 36 0 41 0;
#X connect 36 1 37 0;
#X connect 37 0 42 0;
#X connect 37 1 38 0;
#X connect 38 0 51 0;
#X connect 39 0 45 0;
#X connect 40 0 46 0;
#X connect 41 0 47 0;
#X connect 42 0 48 0;
#X connect 43 0 64 0;
#X connect 44 0 64 0;
#X connect 45 0 64 0;
#X connect 46 0 64 0;
#X connect 47 0 64 0;
#X connect 48 0 64 0;
#X connect 49 0 28 0;
#X connect 49 1 26 0;
#X connect 50 0 64 0;
#X connect 51 0 50 0;
#X connect 52 0 33 0;
#X connect 53 0 33 1;
#X connect 54 0 31 0;
#X connect 54 1 32 0;
#X connect 55 0 56 0;
#X connect 55 1 60 0;
#X connect 56 1 58 0;
#X connect 57 0 62 0;
#X connect 58 0 57 0;
#X connect 59 0 33 1;
#X connect 60 0 61 0;
#X connect 61 0 33 1;
#X connect 62 0 63 0;
#X connect 63 0 59 0;
#X connect 64 0 52 0;
